<svg width="159" height="34" viewBox="0 0 159 34" fill="none" xmlns="http://www.w3.org/2000/svg">
<path fill-rule="evenodd" clip-rule="evenodd" d="M11.9167 27.754C16.3711 27.284 19.8875 23.4261 20.1508 18.6397H11.9167V27.754ZM21.9868 18.6397H22V18.0625V6.375L11 6.375C4.92486 6.375 -5.31105e-07 11.6077 0 18.0625C5.31105e-07 24.5173 4.92486 29.75 11 29.75C16.893 29.75 21.7036 24.8263 21.9868 18.6397ZM11 8.32292C5.93739 8.32292 1.83333 12.6835 1.83333 18.0625C1.83333 23.1128 5.45112 27.2653 10.0833 27.754V16.6918H20.1667V8.32292H11Z" fill="#1B2437"/>
<path d="M44.144 9.744C44.848 9.744 45.4 9.824 45.8 9.984C46.216 10.128 46.64 10.344 47.072 10.632C47.424 10.856 47.696 10.968 47.888 10.968C48.032 10.968 48.144 10.888 48.224 10.728C48.304 10.552 48.368 10.28 48.416 9.912H48.968C48.888 10.84 48.848 12.472 48.848 14.808H48.296C48.2 13.512 47.824 12.424 47.168 11.544C46.528 10.648 45.592 10.2 44.36 10.2C43.496 10.2 42.792 10.464 42.248 10.992C41.704 11.504 41.432 12.168 41.432 12.984C41.432 13.592 41.568 14.12 41.84 14.568C42.128 15.016 42.488 15.4 42.92 15.72C43.352 16.04 43.968 16.448 44.768 16.944L45.464 17.376C46.472 18 47.264 18.552 47.84 19.032C48.432 19.496 48.904 20.032 49.256 20.64C49.608 21.248 49.784 21.96 49.784 22.776C49.784 24.232 49.304 25.36 48.344 26.16C47.384 26.944 46.168 27.336 44.696 27.336C43.928 27.336 43.296 27.256 42.8 27.096C42.32 26.936 41.856 26.72 41.408 26.448C41.056 26.224 40.784 26.112 40.592 26.112C40.448 26.112 40.336 26.2 40.256 26.376C40.176 26.536 40.112 26.8 40.064 27.168H39.512C39.576 26.288 39.608 24.368 39.608 21.408H40.16C40.272 23.024 40.672 24.336 41.36 25.344C42.048 26.352 43.104 26.856 44.528 26.856C45.392 26.856 46.128 26.592 46.736 26.064C47.344 25.52 47.648 24.72 47.648 23.664C47.648 22.768 47.344 22.008 46.736 21.384C46.144 20.76 45.2 20.056 43.904 19.272C42.96 18.696 42.192 18.184 41.6 17.736C41.024 17.288 40.552 16.752 40.184 16.128C39.816 15.488 39.632 14.744 39.632 13.896C39.632 12.552 40.064 11.528 40.928 10.824C41.792 10.104 42.864 9.744 44.144 9.744ZM55.4249 17.184C55.8249 16.176 56.3769 15.448 57.0809 15C57.8009 14.536 58.6089 14.304 59.5049 14.304C60.6249 14.304 61.4729 14.608 62.0489 15.216C62.3529 15.536 62.5689 15.936 62.6969 16.416C62.8249 16.896 62.8889 17.544 62.8889 18.36V24.768C62.8889 25.424 63.0249 25.88 63.2969 26.136C63.5689 26.376 64.0409 26.496 64.7129 26.496V27C63.2409 26.936 62.2809 26.904 61.8329 26.904C61.3849 26.904 60.4889 26.936 59.1449 27V26.496C59.7369 26.496 60.1449 26.376 60.3689 26.136C60.6089 25.88 60.7289 25.424 60.7289 24.768V17.832C60.7289 16.936 60.6009 16.256 60.3449 15.792C60.0889 15.312 59.5689 15.072 58.7849 15.072C58.1289 15.072 57.5449 15.256 57.0329 15.624C56.5369 15.992 56.1449 16.512 55.8569 17.184C55.5689 17.84 55.4249 18.584 55.4249 19.416V24.768C55.4249 25.424 55.5369 25.88 55.7609 26.136C56.0009 26.376 56.4169 26.496 57.0089 26.496V27C55.6649 26.936 54.7689 26.904 54.3209 26.904C53.8729 26.904 52.9129 26.936 51.4409 27V26.496C52.1129 26.496 52.5849 26.376 52.8569 26.136C53.1289 25.88 53.2649 25.424 53.2649 24.768V11.088C53.2649 10.352 53.1289 9.816 52.8569 9.48C52.5849 9.144 52.1129 8.976 51.4409 8.976V8.472C51.9529 8.52 52.4489 8.544 52.9289 8.544C53.9369 8.544 54.7689 8.432 55.4249 8.208V17.184ZM68.5023 8.64C68.9183 8.64 69.2783 8.792 69.5823 9.096C69.8863 9.4 70.0383 9.76 70.0383 10.176C70.0383 10.592 69.8863 10.952 69.5823 11.256C69.2783 11.56 68.9183 11.712 68.5023 11.712C68.0863 11.712 67.7263 11.56 67.4223 11.256C67.1183 10.952 66.9663 10.592 66.9663 10.176C66.9663 9.76 67.1183 9.4 67.4223 9.096C67.7263 8.792 68.0863 8.64 68.5023 8.64ZM69.7503 24.768C69.7503 25.424 69.8863 25.88 70.1583 26.136C70.4303 26.376 70.9023 26.496 71.5743 26.496V27C70.1023 26.936 69.1343 26.904 68.6703 26.904C68.2063 26.904 67.2383 26.936 65.7663 27V26.496C66.4383 26.496 66.9103 26.376 67.1823 26.136C67.4543 25.88 67.5903 25.424 67.5903 24.768V17.256C67.5903 16.52 67.4543 15.984 67.1823 15.648C66.9103 15.312 66.4383 15.144 65.7663 15.144V14.64C66.2783 14.688 66.7743 14.712 67.2543 14.712C68.2623 14.712 69.0943 14.6 69.7503 14.376V24.768ZM80.8616 14.304C81.9816 14.304 82.8296 14.608 83.4056 15.216C83.7096 15.536 83.9256 15.936 84.0536 16.416C84.1816 16.896 84.2456 17.544 84.2456 18.36V24.768C84.2456 25.424 84.3816 25.88 84.6536 26.136C84.9256 26.376 85.3976 26.496 86.0696 26.496V27C84.5976 26.936 83.6376 26.904 83.1896 26.904C82.7416 26.904 81.8456 26.936 80.5016 27V26.496C81.0936 26.496 81.5016 26.376 81.7256 26.136C81.9656 25.88 82.0856 25.424 82.0856 24.768V17.832C82.0856 16.936 81.9576 16.256 81.7016 15.792C81.4456 15.312 80.9256 15.072 80.1416 15.072C79.4856 15.072 78.9016 15.264 78.3896 15.648C77.8776 16.032 77.4776 16.56 77.1896 17.232C76.9176 17.888 76.7816 18.624 76.7816 19.44V24.768C76.7816 25.424 76.8936 25.88 77.1176 26.136C77.3576 26.376 77.7736 26.496 78.3656 26.496V27C77.0216 26.936 76.1256 26.904 75.6776 26.904C75.2296 26.904 74.2696 26.936 72.7976 27V26.496C73.4696 26.496 73.9416 26.376 74.2136 26.136C74.4856 25.88 74.6216 25.424 74.6216 24.768V17.256C74.6216 16.52 74.4856 15.984 74.2136 15.648C73.9416 15.312 73.4696 15.144 72.7976 15.144V14.64C73.3096 14.688 73.8056 14.712 74.2856 14.712C75.2936 14.712 76.1256 14.6 76.7816 14.376V17.208C77.1816 16.184 77.7336 15.448 78.4376 15C79.1576 14.536 79.9656 14.304 80.8616 14.304ZM97.5339 24.12C97.2459 25 96.7019 25.76 95.9019 26.4C95.1179 27.024 94.1659 27.336 93.0459 27.336C91.9099 27.336 90.9259 27.08 90.0939 26.568C89.2619 26.04 88.6219 25.312 88.1739 24.384C87.7419 23.44 87.5259 22.352 87.5259 21.12C87.5259 19.728 87.7499 18.52 88.1979 17.496C88.6459 16.472 89.2779 15.688 90.0939 15.144C90.9099 14.584 91.8619 14.304 92.9499 14.304C94.3899 14.304 95.4939 14.744 96.2619 15.624C97.0459 16.488 97.4379 17.808 97.4379 19.584H89.9259C89.8779 20.032 89.8539 20.544 89.8539 21.12C89.8539 22.176 90.0219 23.096 90.3579 23.88C90.7099 24.664 91.1659 25.272 91.7259 25.704C92.3019 26.12 92.9019 26.328 93.5259 26.328C94.2939 26.328 94.9739 26.144 95.5659 25.776C96.1579 25.408 96.6539 24.792 97.0539 23.928L97.5339 24.12ZM92.8539 14.76C92.1019 14.76 91.4539 15.128 90.9099 15.864C90.3659 16.6 90.0299 17.688 89.9019 19.128H95.1339C95.1659 17.88 94.9819 16.84 94.5819 16.008C94.1979 15.176 93.6219 14.76 92.8539 14.76ZM110.683 9.744C111.387 9.744 111.939 9.824 112.339 9.984C112.755 10.128 113.179 10.344 113.611 10.632C113.963 10.856 114.235 10.968 114.427 10.968C114.571 10.968 114.683 10.888 114.763 10.728C114.843 10.552 114.907 10.28 114.955 9.912H115.507C115.427 10.84 115.387 12.472 115.387 14.808H114.835C114.739 13.512 114.363 12.424 113.707 11.544C113.067 10.648 112.131 10.2 110.899 10.2C110.035 10.2 109.331 10.464 108.787 10.992C108.243 11.504 107.971 12.168 107.971 12.984C107.971 13.592 108.107 14.12 108.379 14.568C108.667 15.016 109.027 15.4 109.459 15.72C109.891 16.04 110.507 16.448 111.307 16.944L112.003 17.376C113.011 18 113.803 18.552 114.379 19.032C114.971 19.496 115.443 20.032 115.795 20.64C116.147 21.248 116.323 21.96 116.323 22.776C116.323 24.232 115.843 25.36 114.883 26.16C113.923 26.944 112.707 27.336 111.235 27.336C110.467 27.336 109.835 27.256 109.339 27.096C108.859 26.936 108.395 26.72 107.947 26.448C107.595 26.224 107.323 26.112 107.131 26.112C106.987 26.112 106.875 26.2 106.795 26.376C106.715 26.536 106.651 26.8 106.603 27.168H106.051C106.115 26.288 106.147 24.368 106.147 21.408H106.699C106.811 23.024 107.211 24.336 107.899 25.344C108.587 26.352 109.643 26.856 111.067 26.856C111.931 26.856 112.667 26.592 113.275 26.064C113.883 25.52 114.187 24.72 114.187 23.664C114.187 22.768 113.883 22.008 113.275 21.384C112.683 20.76 111.739 20.056 110.443 19.272C109.499 18.696 108.731 18.184 108.139 17.736C107.563 17.288 107.091 16.752 106.723 16.128C106.355 15.488 106.171 14.744 106.171 13.896C106.171 12.552 106.603 11.528 107.467 10.824C108.331 10.104 109.403 9.744 110.683 9.744ZM121.964 17.184C122.364 16.176 122.916 15.448 123.62 15C124.34 14.536 125.148 14.304 126.044 14.304C127.164 14.304 128.012 14.608 128.588 15.216C128.892 15.536 129.108 15.936 129.236 16.416C129.364 16.896 129.428 17.544 129.428 18.36V24.768C129.428 25.424 129.564 25.88 129.836 26.136C130.108 26.376 130.58 26.496 131.252 26.496V27C129.78 26.936 128.82 26.904 128.372 26.904C127.924 26.904 127.028 26.936 125.684 27V26.496C126.276 26.496 126.684 26.376 126.908 26.136C127.148 25.88 127.268 25.424 127.268 24.768V17.832C127.268 16.936 127.14 16.256 126.884 15.792C126.628 15.312 126.108 15.072 125.324 15.072C124.668 15.072 124.084 15.256 123.572 15.624C123.076 15.992 122.684 16.512 122.396 17.184C122.108 17.84 121.964 18.584 121.964 19.416V24.768C121.964 25.424 122.076 25.88 122.3 26.136C122.54 26.376 122.956 26.496 123.548 26.496V27C122.204 26.936 121.308 26.904 120.86 26.904C120.412 26.904 119.452 26.936 117.98 27V26.496C118.652 26.496 119.124 26.376 119.396 26.136C119.668 25.88 119.804 25.424 119.804 24.768V11.088C119.804 10.352 119.668 9.816 119.396 9.48C119.124 9.144 118.652 8.976 117.98 8.976V8.472C118.492 8.52 118.988 8.544 119.468 8.544C120.476 8.544 121.308 8.432 121.964 8.208V17.184ZM138.185 14.304C139.817 14.304 141.129 14.848 142.121 15.936C143.129 17.008 143.633 18.64 143.633 20.832C143.633 23.024 143.129 24.656 142.121 25.728C141.129 26.8 139.817 27.336 138.185 27.336C136.553 27.336 135.233 26.8 134.225 25.728C133.233 24.656 132.737 23.024 132.737 20.832C132.737 18.64 133.233 17.008 134.225 15.936C135.233 14.848 136.553 14.304 138.185 14.304ZM138.185 14.784C137.225 14.784 136.465 15.28 135.905 16.272C135.345 17.248 135.065 18.768 135.065 20.832C135.065 22.896 135.345 24.416 135.905 25.392C136.465 26.368 137.225 26.856 138.185 26.856C139.145 26.856 139.905 26.368 140.465 25.392C141.025 24.416 141.305 22.896 141.305 20.832C141.305 18.768 141.025 17.248 140.465 16.272C139.905 15.28 139.145 14.784 138.185 14.784ZM153.11 14.304C153.958 14.304 154.718 14.536 155.39 15C156.078 15.464 156.614 16.144 156.998 17.04C157.382 17.936 157.574 19.008 157.574 20.256C157.574 21.488 157.374 22.64 156.974 23.712C156.59 24.784 155.982 25.656 155.15 26.328C154.334 27 153.31 27.336 152.078 27.336C151.47 27.336 150.918 27.216 150.422 26.976C149.926 26.736 149.542 26.424 149.27 26.04V29.112C149.27 29.768 149.462 30.216 149.846 30.456C150.23 30.712 150.806 30.84 151.574 30.84V31.344L151.022 31.32C149.534 31.272 148.566 31.248 148.118 31.248C147.734 31.248 146.87 31.28 145.526 31.344V30.84C146.118 30.84 146.526 30.728 146.75 30.504C146.99 30.296 147.11 29.912 147.11 29.352V17.256C147.11 16.52 146.974 15.984 146.702 15.648C146.43 15.312 145.958 15.144 145.286 15.144V14.64C145.782 14.688 146.278 14.712 146.774 14.712C147.782 14.712 148.614 14.6 149.27 14.376V16.92C149.622 16.088 150.134 15.448 150.806 15C151.478 14.536 152.246 14.304 153.11 14.304ZM151.814 26.784C154.102 26.784 155.246 24.72 155.246 20.592C155.246 16.88 154.318 15.024 152.462 15.024C151.742 15.024 151.094 15.288 150.518 15.816C149.942 16.328 149.526 17.072 149.27 18.048V25.248C149.494 25.712 149.822 26.088 150.254 26.376C150.686 26.648 151.206 26.784 151.814 26.784Z" fill="#1B2437"/>
</svg>
